<svg width="241" height="53" viewBox="0 0 241 53" fill="none" xmlns="http://www.w3.org/2000/svg">
<path fill-rule="evenodd" clip-rule="evenodd" d="M4.6554 51.5932L0.5 43.3284C8.46453 41.2182 21.1039 26.7987 23.8742 20.4682C27.2852 12.6735 31.3193 7.45554 43.7855 7.27969H56.2517L56.0785 53H48.8066C49.6604 48.4989 49.524 46.0921 48.114 41.2182C46.7289 36.2945 41.5346 27.8538 31.1461 27.3263C27.8564 31.3708 18.853 42.0975 4.6554 51.5932ZM41.8809 14.8411C35.5093 14.1377 32.6467 19.3545 32.0118 22.0509C35.4725 20.2481 43.6498 21.0774 48.2872 29.4365C50.3649 26.4471 49.8454 15.7204 41.8809 14.8411Z" fill="#4DB8FF"/>
<path d="M79.9823 40.9352C77.5272 40.9352 75.3472 40.4227 73.4424 39.3977C71.5376 38.3727 69.9714 37.0701 68.7439 35.49C67.5586 33.9098 66.7332 32.2869 66.2676 30.6213V16.5278C66.7332 14.8622 67.5586 13.2607 68.7439 11.7232C69.9714 10.143 71.5376 8.86181 73.4424 7.87954C75.3472 6.85456 77.5272 6.34207 79.9823 6.34207C82.9454 6.34207 85.5909 7.08945 87.919 8.58421C90.2895 10.0363 92.152 12.0649 93.5065 14.67C94.9034 17.2325 95.6018 20.2007 95.6018 23.5746C95.6018 26.9485 94.9034 29.9593 93.5065 32.6072C92.152 35.2124 90.2895 37.2623 87.919 38.7571C85.5909 40.2091 82.9454 40.9352 79.9823 40.9352ZM61.569 52.7224V7.36705H69.5058V16.3997L67.601 23.6386L70.1407 30.8775V52.7224H61.569ZM78.4584 33.2478C80.1939 33.2478 81.6966 32.8421 82.9665 32.0306C84.2364 31.2192 85.2311 30.0875 85.9507 28.6354C86.6703 27.1833 87.0301 25.5177 87.0301 23.6386C87.0301 21.7168 86.6703 20.0512 85.9507 18.6418C85.2311 17.1898 84.2364 16.058 82.9665 15.2466C81.6966 14.4351 80.1939 14.0294 78.4584 14.0294C76.7653 14.0294 75.2626 14.4351 73.9504 15.2466C72.6805 16.058 71.6858 17.1898 70.9662 18.6418C70.2466 20.0512 69.8868 21.7168 69.8868 23.6386C69.8868 25.5177 70.2466 27.1833 70.9662 28.6354C71.6858 30.0875 72.6805 31.2192 73.9504 32.0306C75.2626 32.8421 76.7653 33.2478 78.4584 33.2478Z" fill="#EEEEEE"/>
<path d="M116.863 40.9352C113.562 40.9352 110.641 40.2091 108.101 38.7571C105.604 37.2623 103.635 35.2124 102.196 32.6072C100.757 30.002 100.037 27.0125 100.037 23.6386C100.037 20.2647 100.757 17.2752 102.196 14.67C103.635 12.0649 105.604 10.0363 108.101 8.58421C110.641 7.08945 113.562 6.34207 116.863 6.34207C120.165 6.34207 123.065 7.08945 125.562 8.58421C128.102 10.0363 130.091 12.0649 131.53 14.67C132.97 17.2752 133.689 20.2647 133.689 23.6386C133.689 27.0125 132.97 30.002 131.53 32.6072C130.091 35.2124 128.102 37.2623 125.562 38.7571C123.065 40.2091 120.165 40.9352 116.863 40.9352ZM116.863 33.3119C118.557 33.3119 120.017 32.9275 121.244 32.1588C122.472 31.3473 123.424 30.2156 124.102 28.7635C124.779 27.3115 125.118 25.6032 125.118 23.6386C125.118 21.6741 124.779 19.9658 124.102 18.5137C123.424 17.0617 122.472 15.9513 121.244 15.1825C120.017 14.3711 118.557 13.9654 116.863 13.9654C115.17 13.9654 113.71 14.3711 112.482 15.1825C111.255 15.9513 110.302 17.0617 109.625 18.5137C108.948 19.9658 108.609 21.6741 108.609 23.6386C108.609 25.6032 108.948 27.3115 109.625 28.7635C110.302 30.2156 111.255 31.3473 112.482 32.1588C113.71 32.9275 115.17 33.3119 116.863 33.3119Z" fill="#EEEEEE"/>
<path d="M150.759 52.7224C146.357 52.7224 142.886 51.8683 140.346 50.16C137.806 48.4944 136.537 46.1668 136.537 43.1773C136.537 41.1701 137.087 39.4404 138.187 37.9883C139.288 36.4936 140.875 35.3405 142.949 34.529L147.077 37.7962C146.23 38.1378 145.553 38.693 145.045 39.4618C144.579 40.1878 144.346 40.9779 144.346 41.832C144.346 42.8143 144.706 43.7325 145.426 44.5867C146.145 45.4835 147.521 45.9319 149.553 45.9319H154.061C156.177 45.9319 157.722 45.6544 158.696 45.0992C159.712 44.544 160.22 43.7539 160.22 42.7289C160.22 41.7893 159.839 41.0846 159.077 40.6149C158.315 40.1451 157.299 39.9102 156.029 39.9102H148.537C146.59 39.9102 144.854 39.5899 143.33 38.9493C141.807 38.2659 140.6 37.3477 139.711 36.1946C138.865 35.0415 138.441 33.7389 138.441 32.2869C138.441 30.4932 138.971 28.9557 140.029 27.6745C141.129 26.3505 142.653 25.2829 144.6 24.4714L149.172 27.9948C148.198 27.9948 147.415 28.3151 146.823 28.9557C146.23 29.5536 145.934 30.1515 145.934 30.7494C145.934 31.5182 146.23 32.1374 146.823 32.6072C147.458 33.0343 148.473 33.2478 149.87 33.2478H157.236C160.495 33.2478 163.098 34.0806 165.045 35.7462C167.035 37.4118 168.03 39.6326 168.03 42.4086C168.03 45.5262 166.76 48.0246 164.22 49.9037C161.68 51.7829 158.252 52.7224 153.934 52.7224H150.759ZM152.537 29.4041C149.828 29.4041 147.458 28.913 145.426 27.9307C143.394 26.9485 141.807 25.6032 140.664 23.8949C139.521 22.1439 138.949 20.1366 138.949 17.8731C138.949 15.6096 139.521 13.6237 140.664 11.9154C141.807 10.1644 143.394 8.79775 145.426 7.81548C147.458 6.8332 149.828 6.34207 152.537 6.34207C155.246 6.34207 157.617 6.8332 159.648 7.81548C161.68 8.79775 163.268 10.1644 164.41 11.9154C165.553 13.6237 166.125 15.6096 166.125 17.8731C166.125 20.1366 165.553 22.1439 164.41 23.8949C163.268 25.6032 161.68 26.9485 159.648 27.9307C157.617 28.913 155.246 29.4041 152.537 29.4041ZM152.537 22.7418C154.23 22.7418 155.585 22.2933 156.601 21.3965C157.659 20.4996 158.188 19.3252 158.188 17.8731C158.188 16.421 157.659 15.2466 156.601 14.3497C155.585 13.4529 154.23 13.0044 152.537 13.0044C150.844 13.0044 149.468 13.4529 148.41 14.3497C147.394 15.2466 146.886 16.421 146.886 17.8731C146.886 19.3252 147.394 20.4996 148.41 21.3965C149.468 22.2933 150.844 22.7418 152.537 22.7418ZM162.252 12.556L156.918 10.3139C156.918 8.34932 157.299 6.59831 158.061 5.06084C158.823 3.48066 159.86 2.24214 161.172 1.34529C162.484 0.448428 163.945 0 165.553 0C166.146 0 166.654 0.0213535 167.077 0.0640605C167.543 0.0640605 167.86 0.106769 168.03 0.192185V7.30299L167.712 7.9436C167.289 7.81548 166.739 7.75142 166.061 7.75142C164.791 7.75142 163.839 8.19984 163.204 9.0967C162.569 9.99356 162.252 11.1467 162.252 12.556Z" fill="#EEEEEE"/>
<path d="M187.68 40.9352C184.294 40.9352 181.309 40.2091 178.727 38.7571C176.188 37.305 174.198 35.2764 172.759 32.6713C171.32 30.0661 170.6 27.0552 170.6 23.6386C170.6 20.222 171.299 17.2111 172.695 14.606C174.135 12.0008 176.103 9.97221 178.6 8.52015C181.098 7.0681 183.997 6.34207 187.299 6.34207C190.558 6.34207 193.394 7.08945 195.807 8.58421C198.22 10.079 200.104 12.1716 201.458 14.8622C202.813 17.5528 203.49 20.6918 203.49 24.2792V25.8167L202.538 26.7776H174.41V19.9231H199.998L195.236 21.6527C195.236 20.0725 194.876 18.6845 194.156 17.4887C193.479 16.2929 192.548 15.3747 191.363 14.7341C190.22 14.0508 188.929 13.7091 187.489 13.7091C185.881 13.7091 184.442 14.0721 183.172 14.7982C181.902 15.4815 180.907 16.4424 180.188 17.6809C179.51 18.8767 179.172 20.2647 179.172 21.8449V25.2402C179.172 26.7349 179.553 28.1229 180.315 29.4041C181.119 30.6427 182.156 31.6463 183.426 32.415C184.738 33.1837 186.156 33.5681 187.68 33.5681C189.034 33.5681 190.347 33.1624 191.617 32.351C192.886 31.5395 193.881 30.4505 194.601 29.0838H195.363L202.22 31.9666C200.908 34.8707 198.982 37.0915 196.442 38.629C193.945 40.1664 191.024 40.9352 187.68 40.9352Z" fill="#EEEEEE"/>
<path d="M240.5 7.36705V39.9102H232.563V32.1588L234.659 31.7103C233.939 33.6322 232.923 35.2764 231.611 36.6431C230.341 38.0097 228.859 39.0774 227.166 39.8461C225.515 40.5722 223.674 40.9352 221.642 40.9352C219.399 40.9352 217.325 40.444 215.42 39.4618C213.515 38.4368 211.991 36.942 210.848 34.9775C209.748 32.9702 209.197 30.5145 209.197 27.6104V7.36705H217.769V24.8558C217.769 26.6495 218.002 28.187 218.468 29.4682C218.976 30.7067 219.695 31.6463 220.626 32.2869C221.558 32.9275 222.679 33.2478 223.992 33.2478C225.007 33.2478 226.129 32.9702 227.357 32.415C228.627 31.8598 229.706 30.8562 230.595 29.4041C231.484 27.9521 231.928 25.8808 231.928 23.1902V7.36705H240.5Z" fill="#EEEEEE"/>
</svg>
