<svg width="39" height="39" viewBox="0 0 39 39" fill="none" xmlns="http://www.w3.org/2000/svg">
<path d="M16.8408 4.875C14.4742 4.875 12.1608 5.57678 10.193 6.89161C8.22521 8.20643 6.69152 10.0752 5.78585 12.2617C4.88018 14.4482 4.64322 16.8541 5.10493 19.1753C5.56663 21.4964 6.70627 23.6285 8.37972 25.302C10.0532 26.9754 12.1853 28.1151 14.5064 28.5768C16.8276 29.0385 19.2335 28.8015 21.42 27.8958C23.6064 26.9902 25.4753 25.4565 26.7901 23.4887C28.1049 21.5209 28.8067 19.2075 28.8067 16.8408C28.8065 13.6674 27.5457 10.6239 25.3017 8.37994C23.0578 6.13595 20.0143 4.8752 16.8408 4.875Z" stroke="#4DB8FF" stroke-width="2" stroke-miterlimit="10"/>
<path d="M25.7681 25.7681L34.1249 34.1249" stroke="#4DB8FF" stroke-width="2" stroke-miterlimit="10" stroke-linecap="round"/>
</svg>
